HIERARCHY
ROOT root
{
	OFFSET 0.000000 0.000000 0.000000
	CHANNELS 6 Xposition Yposition Zposition Zrotation Yrotation Xrotation
	JOINT lhip
	{
		OFFSET 0.058581 -0.082280 -0.017664
		CHANNELS 3 Zrotation Yrotation Xrotation
		JOINT lknee
		{
			OFFSET 0.043451 -0.386469 0.008037
			CHANNELS 3 Zrotation Yrotation Xrotation
			JOINT lankle
			{
				OFFSET -0.014790 -0.426874 -0.037428
				CHANNELS 3 Zrotation Yrotation Xrotation
				JOINT ltoe
				{
					OFFSET 0.041054 -0.060286 0.122042
					CHANNELS 3 Zrotation Yrotation Xrotation
					End Site
					{
						OFFSET 0.000000 0.000000 0.000000
					}
				}
			}
		}
	}
	JOINT rhip
	{
		OFFSET -0.060310 -0.090513 -0.013543
		CHANNELS 3 Zrotation Yrotation Xrotation
		JOINT rknee
		{
			OFFSET -0.043257 -0.383688 -0.004843
			CHANNELS 3 Zrotation Yrotation Xrotation
			JOINT rankle
			{
				OFFSET 0.019056 -0.420046 -0.034562
				CHANNELS 3 Zrotation Yrotation Xrotation
				JOINT rtoe
				{
					OFFSET -0.034840 -0.062106 0.130323
					CHANNELS 3 Zrotation Yrotation Xrotation
					End Site
					{
						OFFSET 0.000000 0.000000 0.000000
					}
				}
			}
		}
	}
	JOINT lowerback
	{
		OFFSET 0.004439 0.124404 -0.038385
		CHANNELS 3 Zrotation Yrotation Xrotation
		JOINT upperback
		{
			OFFSET 0.004488 0.137956 0.026820
			CHANNELS 3 Zrotation Yrotation Xrotation
			JOINT chest
			{
				OFFSET -0.002265 0.056032 0.002855
				CHANNELS 3 Zrotation Yrotation Xrotation
				JOINT lowerneck
				{
					OFFSET -0.013390 0.211636 -0.033468
					CHANNELS 3 Zrotation Yrotation Xrotation
					JOINT upperneck
					{
						OFFSET 0.010113 0.088937 0.050410
						CHANNELS 3 Zrotation Yrotation Xrotation
						End Site
						{
							OFFSET 0.000000 0.000000 0.000000
						}
					}
				}
				JOINT lclavicle
				{
					OFFSET 0.071702 0.114000 -0.018898
					CHANNELS 3 Zrotation Yrotation Xrotation
					JOINT lshoulder
					{
						OFFSET 0.122921 0.045205 -0.019046
						CHANNELS 3 Zrotation Yrotation Xrotation
						JOINT lelbow
						{
							OFFSET 0.255332 -0.015649 -0.022946
							CHANNELS 3 Zrotation Yrotation Xrotation
							JOINT lwrist
							{
								OFFSET 0.265709 0.012698 -0.007375
								CHANNELS 3 Zrotation Yrotation Xrotation
								End Site
								{
									OFFSET 0.000000 0.000000 0.000000
								}
							}
						}
					}
				}
				JOINT rclavicle
				{
					OFFSET -0.082954 0.112472 -0.023707
					CHANNELS 3 Zrotation Yrotation Xrotation
					JOINT rshoulder
					{
						OFFSET -0.113228 0.046853 -0.008472
						CHANNELS 3 Zrotation Yrotation Xrotation
						JOINT relbow
						{
							OFFSET -0.260127 -0.014369 -0.031269
							CHANNELS 3 Zrotation Yrotation Xrotation
							JOINT rwrist
							{
								OFFSET -0.269108 0.006794 -0.006027
								CHANNELS 3 Zrotation Yrotation Xrotation
								End Site
								{
									OFFSET 0.000000 0.000000 0.000000
								}
							}
						}
					}
				}
			}
		}
	}
}
MOTION
Frames: 13
Frame Time: 0.033333
1.063146 0.247090 0.960684 -81.901024 16.290414 79.751646 16.784899 -3.470535 6.097356 -7.814801 -26.539884 33.633344 3.806054 13.739447 -39.394262 0.000000 -0.000000 0.000000 -14.594166 -7.124317 -20.234109 1.541781 -7.535919 23.945744 9.305680 -12.827139 3.721229 0.000000 -0.000000 0.000000 -7.511204 0.681255 13.226266 5.575121 -3.394077 5.055366 2.863040 -4.583523 5.771231 12.729246 -9.970065 7.383567 5.969349 -15.678202 14.067585 -17.704348 10.611812 7.434652 -49.097523 -10.800997 6.058145 3.741754 -39.943563 11.393594 3.955626 -4.351140 -15.266059 25.128516 -9.049860 0.214260 60.305394 -3.945431 11.217078 -11.835936 29.223178 -0.664093 6.114525 1.497227 -7.249392 
1.049718 0.260952 0.955192 -81.395383 17.285341 79.594607 18.890698 -3.585126 6.426068 -8.298972 -27.431707 35.196638 3.493705 14.265046 -41.129791 0.000000 -0.000000 0.000000 -15.919659 -8.026377 -20.153465 1.835328 -7.189763 21.330600 10.028588 -13.049890 7.091861 0.000000 -0.000000 0.000000 -7.929910 0.691522 13.020619 5.542986 -3.382393 4.385162 2.949036 -4.658670 5.683025 12.988679 -10.623934 8.204273 6.544477 -15.982218 14.249648 -17.244222 11.395282 7.959896 -46.992140 -10.949098 5.623441 1.914019 -41.641755 13.535033 3.344854 -4.713686 -15.156291 25.183843 -9.929541 0.395070 60.187926 -4.738180 10.992785 -11.016315 28.727222 -0.051160 6.492648 1.371332 -6.707328 
1.034781 0.276442 0.949586 -81.090837 18.125967 79.172145 20.970627 -3.806287 7.374041 -8.593329 -28.328806 36.406401 2.900880 14.571300 -42.759449 0.000000 -0.000000 0.000000 -16.973654 -8.911155 -19.982990 2.068156 -6.933154 19.654707 10.528295 -13.291612 8.423232 0.000000 -0.000000 0.000000 -8.656517 0.817768 12.440044 5.553652 -3.494645 4.559694 3.039185 -4.738587 5.663592 13.206534 -10.548497 9.151474 6.870356 -15.908460 14.363632 -16.558555 11.784263 8.368640 -44.943938 -10.999317 5.244765 -0.154407 -42.935544 14.818175 4.302064 -4.817745 -15.292586 25.364743 -10.779090 0.363537 59.905137 -5.417376 10.795155 -10.063964 28.250610 0.231939 5.855679 1.185050 -5.918972 
1.017382 0.293438 0.942512 -80.117134 18.538390 79.387960 22.795519 -4.324200 7.911855 -8.664970 -29.043937 37.071962 2.446445 14.725676 -44.165623 0.000000 -0.000000 0.000000 -18.482273 -10.569574 -20.246340 2.456299 -7.094002 19.176098 11.382499 -13.368928 10.291891 0.000000 -0.000000 0.000000 -9.765916 1.074833 10.837061 5.471884 -4.309377 5.074139 3.010588 -5.243779 6.014928 13.591974 -10.273340 9.731287 7.176965 -15.911799 14.579809 -15.546572 12.357839 8.875598 -42.964694 -11.329340 4.938808 -1.835575 -43.861449 15.743409 5.213727 -5.041054 -15.827876 25.431095 -12.026305 0.214817 59.708601 -6.102882 10.877979 -9.159226 27.807408 0.655168 5.699031 1.180753 -5.655620 
1.002979 0.311051 0.936506 -80.168936 19.262787 78.810783 25.179469 -3.877055 9.124480 -8.782182 -30.377306 37.591252 2.037893 14.937459 -45.531174 0.000000 -0.000000 0.000000 -18.952308 -10.604493 -20.324838 2.621417 -6.829615 18.272192 12.175727 -14.453650 14.407050 0.000000 -0.000000 0.000000 -10.404846 0.685325 11.403898 5.393061 -4.077759 4.765266 3.115849 -5.388052 5.572570 13.235358 -10.237266 10.696080 7.438929 -15.168238 14.868643 -15.013478 12.506182 9.648205 -40.815400 -11.174767 3.886587 -3.120736 -44.709881 16.550203 5.534296 -5.401229 -15.382775 25.009548 -12.550030 0.323975 59.727570 -7.595299 10.522862 -8.613013 27.920970 0.807455 5.425643 1.254202 -5.061492 
0.985043 0.329891 0.929578 -79.779726 19.684492 78.372675 27.340050 -5.142822 10.757779 -8.939275 -30.670015 37.156144 0.970509 15.120979 -46.391277 0.000000 -0.000000 0.000000 -19.709146 -10.564263 -19.793593 3.003207 -6.734583 17.167843 12.776315 -15.375753 17.150246 0.000000 -0.000000 0.000000 -11.248365 0.499379 11.160974 5.241821 -4.313639 5.146835 3.134880 -5.610126 5.441369 13.196466 -9.952410 11.411977 8.167659 -14.871954 14.571845 -14.190739 12.664499 10.117299 -38.944669 -11.169385 3.232914 -4.112519 -44.908351 17.022579 5.342677 -6.202340 -15.423917 24.510062 -13.556426 0.480808 59.514146 -9.135337 10.401420 -7.665515 28.494040 1.835955 5.747323 1.349143 -5.247246 
0.966953 0.350482 0.921230 -78.829532 19.337737 79.401369 28.669403 -6.599547 11.152398 -9.066597 -31.162089 36.334011 1.125642 16.968130 -46.492222 0.000000 -0.000000 0.000000 -20.775619 -11.793949 -20.594328 3.652892 -6.479871 16.531997 13.706689 -15.986602 18.873130 0.000000 -0.000000 0.000000 -13.107324 0.361802 9.556766 5.285262 -5.475423 6.431270 3.284760 -6.149141 4.331299 12.092119 -10.057727 13.017176 9.345275 -13.707351 15.012340 -12.862090 11.802149 11.741966 -37.653647 -8.789896 -0.231332 -6.358812 -47.062454 20.427666 6.503729 -5.567856 -16.355163 22.636118 -13.313717 1.755964 60.926471 -11.393675 9.615869 -7.356116 29.556215 3.183934 6.460346 1.388292 -5.548529 
0.948064 0.371609 0.911966 -78.218821 19.133077 80.088449 30.279600 -7.029246 11.843516 -8.713132 -32.264770 35.540982 0.578466 17.464263 -46.584260 0.000000 -0.000000 0.000000 -21.258512 -12.075225 -21.056704 3.827527 -6.155092 15.484155 14.654738 -16.743104 22.832347 0.000000 -0.000000 0.000000 -13.993784 -0.102667 8.649733 4.954371 -5.925398 6.427714 3.236807 -6.420651 4.243646 11.371081 -10.036671 14.677366 9.848459 -12.875605 14.848972 -11.859633 11.532312 12.796247 -36.394129 -8.434415 -1.518996 -7.171090 -47.078323 21.730374 7.808240 -5.988710 -16.998926 20.998774 -13.862486 2.920635 61.792356 -13.433362 9.459229 -6.828264 30.760035 5.613355 5.879764 1.180687 -6.582182 
0.929307 0.393413 0.900945 -77.174815 18.640477 80.745103 31.587334 -7.664235 12.329287 -8.141937 -33.155835 34.812428 -0.313893 17.726529 -47.230573 0.000000 -0.000000 0.000000 -21.952539 -12.777898 -21.358388 4.224131 -5.545834 14.890954 15.675284 -16.917357 26.020054 0.000000 -0.000000 0.000000 -14.368636 -0.457192 8.413338 4.558921 -6.324722 6.839488 3.216448 -6.743113 4.193345 10.792015 -9.887280 15.325270 10.514400 -11.837613 13.960006 -11.313574 11.280321 12.973967 -35.269232 -8.389981 -2.297393 -7.475674 -47.288317 21.354890 8.485796 -6.010780 -16.518985 19.924852 -14.548757 3.342882 61.692660 -15.183561 9.213003 -5.333803 31.787398 7.611050 6.227829 1.295289 -5.745113 
0.911284 0.416475 0.888282 -76.541859 17.633310 81.502451 33.080975 -7.706976 12.761931 -7.977389 -33.878314 33.730099 -1.044901 17.239424 -47.659262 0.000000 -0.000000 0.000000 -22.350417 -13.490535 -22.395121 4.482029 -4.686348 14.626664 16.960610 -16.974922 29.892797 0.000000 -0.000000 0.000000 -14.837890 -0.670595 8.591480 4.348223 -6.427273 6.919573 3.303007 -7.035647 4.426436 10.630069 -9.224914 14.683466 11.103611 -11.041474 13.415923 -10.768182 11.369258 13.225518 -34.630389 -8.382102 -2.570210 -7.648144 -48.118687 21.224971 8.684320 -6.450908 -16.919003 19.576463 -15.049422 3.392864 60.416573 -16.488653 9.238515 -3.690875 32.068786 9.275466 7.878309 1.632237 -5.446515 
0.892535 0.439728 0.873495 -75.800354 16.077355 82.546077 34.190211 -7.610566 12.777312 -8.150778 -34.461491 32.892580 -1.634280 16.722804 -48.032377 0.000000 -0.000000 0.000000 -23.005933 -13.985033 -23.448339 5.147306 -3.701819 14.950591 17.875647 -16.525693 33.060176 0.000000 -0.000000 0.000000 -15.052617 -0.880866 8.972761 4.330627 -6.493046 6.643815 3.482465 -7.113043 4.394934 9.856299 -8.834619 14.844421 11.203648 -10.913806 13.241717 -10.639055 11.194855 13.304177 -34.227171 -8.177934 -2.262857 -8.165178 -48.752795 21.331051 8.900621 -6.515946 -16.686474 19.464134 -15.218109 3.929335 58.492614 -17.441747 9.211481 -1.739780 31.754271 10.995551 8.993071 2.155083 -4.898677 
0.873612 0.463760 0.856887 -75.057507 14.061466 83.577210 34.578788 -7.662641 12.779936 -8.134255 -34.704766 32.403545 -2.259688 16.849042 -48.400376 0.000000 -0.000000 0.000000 -23.341511 -13.781724 -25.318190 5.339109 -2.470422 19.178719 17.471037 -16.280784 35.055603 0.000000 -0.000000 0.000000 -14.725567 -1.168219 9.462775 4.351146 -6.121548 6.534889 3.582543 -6.959157 4.216946 8.894170 -9.109911 14.944296 10.558956 -10.659159 13.005586 -10.521154 10.580978 13.209017 -34.737170 -8.220139 -1.942726 -8.399253 -48.505183 21.102729 8.945936 -6.849634 -17.275428 19.184947 -14.750181 4.642615 57.160016 -17.921033 9.523055 -0.198213 30.710038 12.937830 9.342539 2.252417 -3.191247 
0.852296 0.488228 0.838539 -74.387202 11.468441 83.877751 34.300244 -7.463761 13.699435 -8.079147 -35.616534 31.991062 -4.137685 16.306193 -49.283031 0.000000 -0.000000 0.000000 -23.608832 -14.250541 -27.892481 4.272878 -5.093970 30.033796 19.203874 -16.218313 15.845387 0.000000 -0.000000 0.000000 -14.078584 -1.481505 10.861825 4.222433 -5.205334 7.129475 3.203622 -6.827373 4.113804 10.229766 -7.770792 12.458068 8.904468 -12.432284 12.950251 -10.761693 10.743874 11.796009 -34.694017 -7.872526 -0.679479 -8.623626 -49.283176 20.202597 10.095058 -7.052169 -18.196447 20.403363 -13.935210 3.099819 54.442951 -19.037962 10.080681 1.739102 30.193439 14.600785 10.431130 2.176174 0.558093 
